<?xml version="1.0" encoding="utf-8"?>
<!-- Generator: Adobe Illustrator 16.0.0, SVG Export Plug-In . SVG Version: 6.00 Build 0)  -->
<!DOCTYPE svg PUBLIC "-//W3C//DTD SVG 1.1//EN" "http://www.w3.org/Graphics/SVG/1.1/DTD/svg11.dtd">
<svg version="1.1" id="Objects" xmlns="http://www.w3.org/2000/svg" xmlns:xlink="http://www.w3.org/1999/xlink" x="0px" y="0px"
	 width="29.648px" height="34.728px" viewBox="0 0 29.648 34.728" enable-background="new 0 0 29.648 34.728" xml:space="preserve">
<path fill="#FFFFFF" d="M29.02,30.103l-7.792-9.681c1.976-2.168,3.181-5.052,3.181-8.218C24.408,5.464,18.944,0,12.204,0
	C5.465,0,0,5.464,0,12.204s5.465,12.205,12.204,12.205c1.529,0,2.991-0.284,4.34-0.797c0.072,0.126,0.152,0.249,0.246,0.366
	l7.801,9.69c0.985,1.223,2.774,1.416,3.997,0.432S30.004,31.325,29.02,30.103z M3.237,12.204c0-4.953,4.015-8.967,8.967-8.967
	c4.953,0,8.968,4.015,8.968,8.967s-4.015,8.967-8.968,8.967C7.252,21.171,3.237,17.157,3.237,12.204z"/>
</svg>
