<?xml version="1.0" encoding="utf-8"?>
<!-- Generator: Adobe Illustrator 16.0.0, SVG Export Plug-In . SVG Version: 6.00 Build 0)  -->
<!DOCTYPE svg PUBLIC "-//W3C//DTD SVG 1.1//EN" "http://www.w3.org/Graphics/SVG/1.1/DTD/svg11.dtd">
<svg version="1.1" id="Objects" xmlns="http://www.w3.org/2000/svg" xmlns:xlink="http://www.w3.org/1999/xlink" x="0px" y="0px"
	 width="31.799px" height="35.394px" viewBox="0 0 31.799 35.394" enable-background="new 0 0 31.799 35.394" xml:space="preserve">
<path fill="#FFFFFF" d="M26.25,0c-3.064,0-5.549,2.484-5.549,5.549v10.92c-0.197-1.165-0.681-2.231-1.453-2.916L9.255,2.281
	C6.257-1.465-0.038-0.434,0.014,4.784v25.812c-0.305,4.252,4.696,7.025,9.174,2.407l10.061-11.176
	c0.772-0.685,1.256-1.751,1.453-2.916v10.921c0,3.064,2.484,5.549,5.549,5.549c3.065,0,5.549-2.484,5.549-5.549V5.549
	C31.799,2.484,29.315,0,26.25,0z"/>
</svg>
