<?xml version="1.0" encoding="utf-8"?>
<!-- Generator: Adobe Illustrator 16.0.0, SVG Export Plug-In . SVG Version: 6.00 Build 0)  -->
<!DOCTYPE svg PUBLIC "-//W3C//DTD SVG 1.1//EN" "http://www.w3.org/Graphics/SVG/1.1/DTD/svg11.dtd">
<svg version="1.1" id="Objects" xmlns="http://www.w3.org/2000/svg" xmlns:xlink="http://www.w3.org/1999/xlink" x="0px" y="0px"
	 width="38.394px" height="35.2px" viewBox="0 0 38.394 35.2" enable-background="new 0 0 38.394 35.2" xml:space="preserve">
<path id="heart" fill="#FFFFFF" d="M38.394,11.627c0-0.051-0.003-0.109-0.004-0.161c0.001-0.148,0.003-0.456,0-0.456h-0.01
	C38.093,4.696,33.451,0,27.769,0c-3.52,0-6.638,1.876-8.571,4.757c-1.934-2.881-5.052-4.731-8.571-4.731
	c-5.479,0-9.987,4.369-10.563,10.382H0.051c0,0,0,0.072,0,0.119C0.019,10.896,0,11.259,0,11.638c0,1.734,0.351,3.374,0.974,4.852
	C4.796,28.267,19.147,35.2,19.147,35.2s17.895-7.983,19.172-22.217C38.366,12.538,38.394,12.085,38.394,11.627z"/>
</svg>
