<?xml version="1.0" encoding="utf-8"?>
<!-- Generator: Adobe Illustrator 16.0.0, SVG Export Plug-In . SVG Version: 6.00 Build 0)  -->
<!DOCTYPE svg PUBLIC "-//W3C//DTD SVG 1.1//EN" "http://www.w3.org/Graphics/SVG/1.1/DTD/svg11.dtd">
<svg version="1.1" id="Objects" xmlns="http://www.w3.org/2000/svg" xmlns:xlink="http://www.w3.org/1999/xlink" x="0px" y="0px"
	 width="51.869px" height="36.433px" viewBox="0 0 51.869 36.433" enable-background="new 0 0 51.869 36.433" xml:space="preserve">
<path fill="#FEFEFE" d="M51.114,5.974c-0.82-3.154-3.46-4.745-5.803-5.261c-3.576-0.79-19.378-0.739-19.378-0.739
	s-15.8-0.051-19.377,0.739C4.214,1.229,1.574,2.82,0.754,5.974C0,8.876,0,18.204,0,18.204s0,9.328,0.754,12.229
	c0.82,3.155,3.46,4.745,5.803,5.263c3.577,0.79,19.377,0.738,19.377,0.738s15.802,0.052,19.378-0.738
	c2.343-0.518,4.982-2.107,5.803-5.263c0.755-2.901,0.755-12.229,0.755-12.229S51.869,8.876,51.114,5.974z M20.339,26.006V10.137
	l14.098,8.066L20.339,26.006z"/>
</svg>
