<?xml version="1.0" encoding="utf-8"?>
<!-- Generator: Adobe Illustrator 16.0.0, SVG Export Plug-In . SVG Version: 6.00 Build 0)  -->
<!DOCTYPE svg PUBLIC "-//W3C//DTD SVG 1.1//EN" "http://www.w3.org/Graphics/SVG/1.1/DTD/svg11.dtd">
<svg version="1.1" id="Objects" xmlns="http://www.w3.org/2000/svg" xmlns:xlink="http://www.w3.org/1999/xlink" x="0px" y="0px"
	 width="28.643px" height="33.622px" viewBox="0 0 28.643 33.622" enable-background="new 0 0 28.643 33.622" xml:space="preserve">
<path id="sound-2_2_" fill="#FFFFFF" d="M28.569,6.583l0.073-5.916c0.002-0.43-0.323-0.726-0.748-0.658L9.807,2.89
	C9.381,2.958,9.028,3.365,9.028,3.794v0.04v7.777v14.441c-1.041-0.795-2.274-1.288-3.731-1.288C2.37,24.764,0,26.747,0,29.193
	c0,2.446,2.372,4.429,5.299,4.429c2.925,0,5.297-1.983,5.297-4.429c0-0.202-0.002-0.241-0.006-0.566
	c0.013-0.293,0.002-0.205,0.002-0.302V14.08l0,0v-1.948l16.414-2.739v14.021c-1.042-0.796-2.252-1.288-3.707-1.288
	c-2.928,0-5.286,1.982-5.286,4.429c0,2.446,2.379,4.428,5.304,4.428c2.928,0,5.286-1.963,5.286-4.409
	c0-0.202-0.003-0.285-0.015-0.603c-0.004-0.26-0.019-0.188-0.019-0.286V11.442v-0.001V6.583z"/>
</svg>
