<?xml version="1.0" encoding="utf-8"?>
<!-- Generator: Adobe Illustrator 16.0.0, SVG Export Plug-In . SVG Version: 6.00 Build 0)  -->
<!DOCTYPE svg PUBLIC "-//W3C//DTD SVG 1.1//EN" "http://www.w3.org/Graphics/SVG/1.1/DTD/svg11.dtd">
<svg version="1.1" id="Objects" xmlns="http://www.w3.org/2000/svg" xmlns:xlink="http://www.w3.org/1999/xlink" x="0px" y="0px"
	 width="37.779px" height="35.262px" viewBox="0 0 37.779 35.262" enable-background="new 0 0 37.779 35.262" xml:space="preserve">
<path fill="#FFFFFF" d="M37.294,15.12c0,0-16.713-14.211-16.769-14.211C19.645,0.156,19.212-0.004,18.89,0
	c-0.327-0.004-0.705,0.135-1.636,0.908c-0.056,0-16.768,14.211-16.768,14.211s-1.199,0.998,0.17,2.644c0,0,1.343,1.408,3.115,0.011
	v16.247c0,0-0.338,1.241,1.298,1.241c-0.057,0,9.646,0,9.646,0V21.329h4.006h0.339h4.005v13.934c0,0,9.701,0,9.646,0
	c1.635,0,1.297-1.241,1.297-1.241V17.774c1.773,1.397,3.116-0.011,3.116-0.011C38.492,16.118,37.294,15.12,37.294,15.12z"/>
</svg>
