<?xml version="1.0" encoding="utf-8"?>
<!-- Generator: Adobe Illustrator 16.0.0, SVG Export Plug-In . SVG Version: 6.00 Build 0)  -->
<!DOCTYPE svg PUBLIC "-//W3C//DTD SVG 1.1//EN" "http://www.w3.org/Graphics/SVG/1.1/DTD/svg11.dtd">
<svg version="1.1" id="Objects" xmlns="http://www.w3.org/2000/svg" xmlns:xlink="http://www.w3.org/1999/xlink" x="0px" y="0px"
	 width="36.363px" height="36.433px" viewBox="0 0 36.363 36.433" enable-background="new 0 0 36.363 36.433" xml:space="preserve">
<path fill="#FEFEFE" d="M18.182,0C8.14,0,0,8.14,0,18.181c0,10.042,8.14,18.182,18.182,18.182c10.04,0,18.182-8.14,18.182-18.182
	C36.363,8.14,28.222,0,18.182,0z M26.648,26.077c-0.3,0.666-1.146,0.87-1.859,0.478c-5.036-2.581-10.025-2.71-15.532-1.727
	c-0.777,0.173-1.557-0.206-1.691-0.899c-0.134-0.695,0.409-1.422,1.245-1.6c5.979-1.013,11.444-0.68,16.985,1.865
	C26.576,24.58,26.948,25.411,26.648,26.077z M28.811,21.049c-0.349,0.794-1.326,1.045-2.146,0.583
	c-5.72-3.057-11.554-3.204-17.847-1.987c-0.894,0.208-1.791-0.243-1.945-1.07c-0.154-0.828,0.473-1.696,1.434-1.91
	c6.852-1.254,13.213-0.866,19.539,2.146C28.739,19.266,29.161,20.254,28.811,21.049z M28.897,16.153
	c-6.675-3.471-13.689-3.591-20.97-2.068c-1.045,0.25-2.109-0.262-2.306-1.22c-0.196-0.958,0.521-1.968,1.649-2.227
	c7.957-1.573,15.567-1.179,22.975,2.232c1.06,0.512,1.569,1.647,1.168,2.575C31.014,16.37,29.866,16.673,28.897,16.153z"/>
</svg>
