<?xml version="1.0" encoding="utf-8"?>
<!-- Generator: Adobe Illustrator 16.0.0, SVG Export Plug-In . SVG Version: 6.00 Build 0)  -->
<!DOCTYPE svg PUBLIC "-//W3C//DTD SVG 1.1//EN" "http://www.w3.org/Graphics/SVG/1.1/DTD/svg11.dtd">
<svg version="1.1" id="Objects" xmlns="http://www.w3.org/2000/svg" xmlns:xlink="http://www.w3.org/1999/xlink" x="0px" y="0px"
	 width="7.234px" height="31.32px" viewBox="0 0 7.234 31.32" enable-background="new 0 0 7.234 31.32" xml:space="preserve">
<g>
	<path fill="#FFFFFF" d="M0,1.643v3.459c0,0.904,0.651,1.643,1.447,1.643h4.34c0.796,0,1.447-0.739,1.447-1.643V1.643
		C7.234,0.739,6.583,0,5.787,0h-4.34C0.651,0,0,0.739,0,1.643z"/>
	<path fill="#FFFFFF" d="M0,13.931v3.459c0,0.904,0.651,1.643,1.447,1.643h4.34c0.796,0,1.447-0.739,1.447-1.643v-3.459
		c0-0.904-0.651-1.643-1.447-1.643h-4.34C0.651,12.288,0,13.027,0,13.931z"/>
	<path fill="#FFFFFF" d="M0,26.219v3.459c0,0.904,0.651,1.643,1.447,1.643h4.34c0.796,0,1.447-0.739,1.447-1.643v-3.459
		c0-0.904-0.651-1.643-1.447-1.643h-4.34C0.651,24.576,0,25.315,0,26.219z"/>
</g>
</svg>
