<?xml version="1.0" encoding="utf-8"?>
<!-- Generator: Adobe Illustrator 16.0.0, SVG Export Plug-In . SVG Version: 6.00 Build 0)  -->
<!DOCTYPE svg PUBLIC "-//W3C//DTD SVG 1.1//EN" "http://www.w3.org/Graphics/SVG/1.1/DTD/svg11.dtd">
<svg version="1.1" id="Objects" xmlns="http://www.w3.org/2000/svg" xmlns:xlink="http://www.w3.org/1999/xlink" x="0px" y="0px"
	 width="34.471px" height="35.028px" viewBox="0 0 34.471 35.028" enable-background="new 0 0 34.471 35.028" xml:space="preserve">
<g>
	<path id="XMLID_1_" fill="#FFFFFF" d="M3.693,0.293l11.522,5.857c1.643,0.834,1.643,2.92,0,3.755L3.693,15.764
		C2.052,16.598,0,15.555,0,13.886V2.171C0,0.502,2.052-0.541,3.693,0.293z"/>
	<g>
		<path fill="#FFFFFF" d="M34.471,17.677c0-0.759-0.704-1.38-1.567-1.38C33.767,16.297,34.471,16.919,34.471,17.677z"/>
		<path fill="#FFFFFF" d="M32.903,28.13H1.566C0.705,28.13,0,28.751,0,29.509v4.139c0,0.759,0.705,1.379,1.566,1.379h31.337
			c0.863,0,1.567-0.621,1.567-1.379v-4.139C34.471,28.751,33.767,28.13,32.903,28.13z"/>
		<path fill="#FFFFFF" d="M2.467,21.155c-0.864,0-1.692-0.133-2.467-0.368v1.028c0,0.759,0.705,1.379,1.566,1.379h31.337
			c0.863,0,1.567-0.62,1.567-1.379v-4.139c0-0.758-0.704-1.38-1.567-1.38H14.051l-7.784,3.957
			C5.108,20.844,3.793,21.155,2.467,21.155z"/>
		<path fill="#FFFFFF" d="M20.579,11.363h12.324c0.863,0,1.567-0.621,1.567-1.379V5.845c0-0.759-0.704-1.38-1.567-1.38H20.408
			c0.755,1.054,1.186,2.282,1.186,3.563C21.594,9.216,21.231,10.363,20.579,11.363z"/>
	</g>
</g>
</svg>
