<?xml version="1.0" encoding="utf-8"?>
<!-- Generator: Adobe Illustrator 16.0.0, SVG Export Plug-In . SVG Version: 6.00 Build 0)  -->
<!DOCTYPE svg PUBLIC "-//W3C//DTD SVG 1.1//EN" "http://www.w3.org/Graphics/SVG/1.1/DTD/svg11.dtd">
<svg version="1.1" id="Objects" xmlns="http://www.w3.org/2000/svg" xmlns:xlink="http://www.w3.org/1999/xlink" x="0px" y="0px"
	 width="34.471px" height="34.471px" viewBox="0 0 34.471 34.471" enable-background="new 0 0 34.471 34.471" xml:space="preserve">
<path fill="#FFFFFF" d="M32.903,13.786H20.557V1.566c0-0.861-0.621-1.566-1.38-1.566h-4.139c-0.759,0-1.38,0.705-1.38,1.566v12.22
	H1.566C0.705,13.786,0,14.407,0,15.166v4.139c0,0.759,0.705,1.379,1.566,1.379h12.092v12.219c0,0.863,0.621,1.567,1.38,1.567h4.139
	c0.759,0,1.38-0.704,1.38-1.567V20.684h12.347c0.863,0,1.567-0.621,1.567-1.379v-4.139C34.471,14.407,33.767,13.786,32.903,13.786z"
	/>
</svg>
